<?xml version="1.0" encoding="UTF-8"?>
<svg width="511" height="469" version="1.1" xml:space="preserve" xmlns="http://www.w3.org/2000/svg" xmlns:xlink="http://www.w3.org/1999/xlink"><g transform="matrix(.74702 0 0 .8264 58.164 19.03)" stroke="#1a1a1a"><path d="m263.97 51.186-67.221 38.596v40.439l0.10742 0.0274-0.0664 46.574-0.041 8e-3 -49.475 10.002-0.0449 0.01 0.42382-68.869-27.695 15.902-0.74219 166.15 27.307 15.682 0.44141-79.316 0.0254 2e-3 49.76 4.9414 0.0332 4e-3v103.23l67.188 38.582z" fill="#336799"/><g fill="#f9f9f9"><path d="m264.36 51.186v331.97l144.75-83.125-0.74219-166.15-18.305-10.51v74.291l6e-3 74.521-0.87109 0.29883-14.613 5.0352c0.0153-52.212-0.0445-112.19 0.01-163.33l-30.865-17.42-0.45313 191.54-22.111 7.6191-0.44922 0.1543-2e-3 2e-3 -0.0332-187.35 0.0527-0.0293 2e-3 -25.141z"/><path d="m196.75 130.22-49.078-12.25-0.39648 68.861 49.475-10.002z"/><path d="m146.99 236.4-0.45508 79.285 50.215-12.359v-61.984z"/></g><path d="m389.79 123.21-15.209 4.0606v150.21l14.617-5.002 0.86523-0.29883v-74.521l-6e-3 -74.295z" fill="#336799"/><path d="m343.21 96.463-22.479 12.234-0.0176 187.38 22.537-7.8281 0.47657-191.48z" fill="#336799"/></g><path d="m185.22 352.72v24.762c0 0.60222-0.20802 1.682 0.12507 2.2094 0.57371 0.90838 2.6614 1.1477 3.6268 1.3757 4.4082 1.0408 9.8191-1.0313 11.672-5.336 2.4969-5.7992-0.88638-16.883-8.9211-13.423-1.1194 0.48197-2.1383 1.3273-3.0015 2.1677v-8.7544l-0.0155-2.8764-3.4863-0.12506m20.51 0v24.762c0 0.60667-0.20595 1.6761 0.12506 2.2094 0.6004 0.9673 2.6163 1.1652 3.6268 1.3757 4.3172 0.89941 9.4977-0.92186 11.464-5.0859 2.829-5.9908-0.93664-17.603-9.2129-13.465-1.0754 0.53767-1.9115 1.3695-2.7514 2.2094v-12.006h-3.2516m162.08 0v10.755c-1.9635-0.72339-3.7615-1.9688-6.003-1.7509-7.1495 0.69508-9.0066 12.539-4.7524 17.259 2.7936 3.0992 8.5564 3.0478 10.755-0.75038h0.25012l3.2516 2.9181 2.001-1.1672-1.9176-3.5017-0.0834-7.7538v-16.008h-3.5017m-230.11 1.0005v27.013h4.2707l0.0231-13.508 3.2099 2e-3h9.0045v13.507h4.002v-27.013h-4.002v12.006h-12.506v-12.006h-4.002m141.57 0 11.005 27.514 6.003-16.508 7.0348 16.508 9.9737-27.514-1.7888-0.0154-5.5482 16.023-1.9176 6.003h-0.25012l-1.5841-5.2526-3.5851-11.005-1.9176-5.6278-4.4189-0.12506 3.0849 8.4208-1.1672 3.5851-3.1682 10.005h-0.25012l-7.0035-22.011h-4.5022m-52.276 0.87543c-2.3509 1.192-0.46601 5.2016 2.001 3.8352 2.3039-1.276 0.43682-5.0713-2.001-3.8352m9.5047 8.1623v2.001c1.529-0.0403 4.4061-7e-3 5.9777-7e-3 0 1.2825 0.0252 2.7527 0.0252 3.7589v12.599h2.7514v-16.369c3.5424-0.0432 3.4825-0.0221 5.9798-0.0273l0.0232-1.9553h-14.757m-65.282-0.95033c-3.0321 0.58958-5.8389 2.0116-7.2119 4.9191-3.0501 6.4589 0.61167 16.164 8.9628 14.424 3.3133-0.69026 6.1201-2.4414 7.4204-5.6695 2.5706-6.3822-1.2747-15.209-9.1712-13.673m83.291 16.425c0 2.3834 1.6759 2.4022 3.7519 2.8347 3.0675 0.63908 7.1641-0.11866 8.5042-3.335 2.4065-5.7756-5.5712-6.9328-8.1707-10.005-1.2695-1.5003-0.83-3.5862 1.1672-4.1687 0.81045-0.23637 1.9767 0.24202 2.7514 0.50025 1.13 0.37668 2.1552 1.0134 3.2516 1.4174l0.50025-2.7514c-3.7518-1.1848-11.506-2.3324-11.506 3.7519 0 0.65494 0.10264 1.3854 0.3335 2.001 1.396 3.7226 6.3572 3.7575 8.2958 7.0035 0.93814 1.5708-0.38878 3.2148-1.8759 3.7519-2.3893 0.8628-4.7993-0.18843-7.0035-1.0005m67.784-16.425c-2.7204 0.52896-5.4904 1.9083-6.9201 4.4189-3.6602 6.4277 0.23668 16.564 8.671 14.924 3.4965-0.67988 6.4693-2.7103 7.6705-6.1697 2.2286-6.4185-1.7458-14.666-9.4214-13.173m20.51 0c-3.0321 0.58958-5.8389 2.0116-7.2119 4.9191-3.05 6.4589 0.61168 16.164 8.9628 14.424 3.3132-0.69026 6.1202-2.4414 7.4204-5.6695 2.5706-6.3822-1.2747-15.209-9.1712-13.673m-116.56 0.41687v18.509h3.5017v-18.509h-3.5017m-54.777 1.0422c6.5826-1.0057 6.6654 9.7222 4.794 13.465-0.72161 1.4432-1.8056 2.8325-3.5434 3.0015-6.3549 0.61784-6.8514-7.8917-5.336-12.256 0.59255-1.7066 2.1561-3.9157 4.0854-4.2104m151.33 0c6.1729-0.77162 6.3612 8.9521 5.0025 12.715-0.58567 1.6219-1.891 3.5451-3.7519 3.7519-6.3265 0.70296-7.1362-7.5415-5.5861-12.006 0.64693-1.8632 2.1653-4.1893 4.3355-4.4606m20.26 0c6.5826-1.0057 6.6655 9.7222 4.794 13.465-0.72159 1.4432-1.8056 2.8325-3.5434 3.0015-6.3549 0.61784-6.8514-7.8917-5.336-12.256 0.59255-1.7066 2.1562-3.9157 4.0854-4.2104m20.01 0.50024c1.2379-0.20631 3.8372 0.19494 4.6273 1.2923 0.59587 0.82759 0.12506 3.4065 0.12506 4.4188 0 1.9112 0.75569 5.8156-0.12506 7.5037-0.65226 1.2502-3.0489 2.122-4.3772 2.2511-2.5289 0.24587-3.5602-1.586-4.2521-3.7519-1.139-3.5658-0.74307-10.923 4.002-11.714m-170.33 0.25013c1.6007-0.20009 3.2219 1.4886 4.002 2.7097 2.0302 3.1778 2.0287 12.197-3.0015 12.756-1.2519 0.1391-3.7335 0.10433-4.7107-0.83375-0.76264-0.73213-0.29181-3.4108-0.29181-4.4189 0-3.9175-1.3196-9.5482 4.002-10.213m20.51 0c1.6946-0.21183 3.3015 1.6565 4.0437 2.9598 1.8861 3.3122 1.8807 12.003-3.2933 12.506-1.2145 0.11808-4.075 0.0306-4.8774-1.0839-0.59586-0.82759-0.12506-3.4066-0.12506-4.4189 0-3.9918-1.141-9.2892 4.2521-9.9633z" fill="#336799"/></svg>
